<svg width="16" height="16" viewBox="0 0 16 16" fill="none" xmlns="http://www.w3.org/2000/svg">
<g clip-path="url(#clip0_2003_140)">
<path d="M4.66663 0.000222593C4.57889 -0.000284754 4.49191 0.0165314 4.41069 0.0497078C4.32946 0.0828843 4.25559 0.131769 4.19329 0.193556C4.13081 0.255532 4.08121 0.329265 4.04737 0.410505C4.01352 0.491744 3.99609 0.57888 3.99609 0.666888C3.99609 0.754896 4.01352 0.842033 4.04737 0.923273C4.08121 1.00451 4.13081 1.07824 4.19329 1.14022L9.63996 6.58688C10.0145 6.96188 10.2249 7.47021 10.2249 8.00021C10.2249 8.53021 10.0145 9.03854 9.63996 9.41354L4.19329 14.8602C4.06776 14.9857 3.99723 15.156 3.99723 15.3335C3.99723 15.5111 4.06776 15.6813 4.19329 15.8069C4.31883 15.9324 4.48909 16.0029 4.66663 16.0029C4.84416 16.0029 5.01443 15.9324 5.13996 15.8069L10.5866 10.3602C10.897 10.0506 11.1433 9.68274 11.3114 9.27777C11.4794 8.8728 11.5659 8.43866 11.5659 8.00021C11.5659 7.56176 11.4794 7.12762 11.3114 6.72266C11.1433 6.31769 10.897 5.94985 10.5866 5.64021L5.13996 0.193556C5.07767 0.131769 5.00379 0.0828842 4.92256 0.0497078C4.84134 0.0165314 4.75436 -0.00028477 4.66663 0.000222593Z" fill="#080B12" style="fill:#080B12;fill:color(display-p3 0.0314 0.0431 0.0706);fill-opacity:1;"/>
</g>
<defs>
<clipPath id="clip0_2003_140">
<rect width="16" height="16" fill="white" style="fill:white;fill-opacity:1;" transform="matrix(1 -8.74228e-08 -8.74228e-08 -1 1.39876e-06 16)"/>
</clipPath>
</defs>
</svg>
