<svg width="46" height="44" viewBox="0 0 46 44" fill="none" xmlns="http://www.w3.org/2000/svg">
<path d="M35.8401 42.0965V35.1738H37.5904V42.0965H35.8401ZM33.2539 39.5103V37.7601H40.1766V39.5103H33.2539Z" fill="#060A11" style="fill:#060A11;fill:color(display-p3 0.0235 0.0392 0.0667);fill-opacity:1;"/>
<path d="M26.3581 38.2976V42.6389H24.2754V32.6265H26.2994V36.4545H26.3874C26.5569 36.0112 26.8307 35.6641 27.2087 35.4131C27.5868 35.1589 28.061 35.0318 28.6314 35.0318C29.1529 35.0318 29.6075 35.1459 29.9954 35.374C30.3865 35.5989 30.6896 35.9232 30.9047 36.3469C31.1231 36.7674 31.2307 37.2709 31.2274 37.8576V42.6389H29.1447V38.2291C29.148 37.7663 29.0307 37.4062 28.7927 37.1487C28.5581 36.8912 28.2289 36.7625 27.8052 36.7625C27.5216 36.7625 27.2707 36.8228 27.0523 36.9434C26.8372 37.064 26.6677 37.24 26.5438 37.4714C26.4232 37.6995 26.3613 37.9749 26.3581 38.2976Z" fill="#060A11" style="fill:#060A11;fill:color(display-p3 0.0235 0.0392 0.0667);fill-opacity:1;"/>
<path d="M22.7933 37.2713L20.8867 37.3887C20.8541 37.2257 20.784 37.079 20.6764 36.9487C20.5689 36.815 20.4271 36.7091 20.2511 36.6309C20.0784 36.5494 19.8714 36.5087 19.6302 36.5087C19.3076 36.5087 19.0354 36.5771 18.8138 36.714C18.5922 36.8476 18.4813 37.0269 18.4813 37.2518C18.4813 37.431 18.553 37.5826 18.6964 37.7065C18.8399 37.8303 19.0859 37.9297 19.4347 38.0047L20.7938 38.2785C21.5239 38.4284 22.0682 38.6696 22.4267 39.002C22.7852 39.3345 22.9645 39.7712 22.9645 40.3122C22.9645 40.8044 22.8194 41.2362 22.5293 41.6078C22.2425 41.9793 21.8482 42.2694 21.3462 42.478C20.8476 42.6833 20.2723 42.786 19.6204 42.786C18.6264 42.786 17.8344 42.579 17.2444 42.1651C16.6578 41.7479 16.3139 41.1808 16.2129 40.4638L18.2613 40.3562C18.3233 40.6593 18.4732 40.8907 18.7111 41.0505C18.949 41.2069 19.2538 41.2851 19.6253 41.2851C19.9904 41.2851 20.2837 41.215 20.5053 41.0749C20.7302 40.9315 20.8443 40.7473 20.8476 40.5225C20.8443 40.3334 20.7645 40.1786 20.608 40.058C20.4516 39.9342 20.2104 39.8396 19.8845 39.7745L18.584 39.5153C17.8507 39.3687 17.3047 39.1145 16.9462 38.7527C16.591 38.3909 16.4133 37.9297 16.4133 37.3691C16.4133 36.8867 16.5437 36.4712 16.8044 36.1224C17.0684 35.7737 17.4384 35.5048 17.9142 35.3158C18.3933 35.1267 18.9539 35.0322 19.596 35.0322C20.5445 35.0322 21.2908 35.2327 21.8351 35.6336C22.3827 36.0344 22.7021 36.5804 22.7933 37.2713Z" fill="#060A11" style="fill:#060A11;fill:color(display-p3 0.0235 0.0392 0.0667);fill-opacity:1;"/>
<path d="M10.7004 42.7811C10.2213 42.7811 9.79429 42.698 9.41947 42.5318C9.04466 42.3623 8.74807 42.113 8.5297 41.7838C8.31459 41.4513 8.20703 41.0374 8.20703 40.542C8.20703 40.1248 8.28362 39.7745 8.43681 39.4909C8.58999 39.2073 8.79859 38.9792 9.06259 38.8065C9.32659 38.6337 9.62644 38.5033 9.96214 38.4153C10.3011 38.3273 10.6564 38.2654 11.0279 38.2296C11.4647 38.1839 11.8167 38.1416 12.0839 38.1025C12.3512 38.0601 12.5451 37.9982 12.6657 37.9167C12.7863 37.8352 12.8466 37.7146 12.8466 37.5549V37.5256C12.8466 37.2159 12.7488 36.9764 12.5533 36.8069C12.361 36.6374 12.0872 36.5527 11.7319 36.5527C11.3571 36.5527 11.0589 36.6358 10.8373 36.802C10.6156 36.965 10.469 37.1703 10.3973 37.418L8.47103 37.2616C8.56881 36.8053 8.76111 36.4109 9.04792 36.0784C9.33474 35.7427 9.70466 35.4853 10.1577 35.306C10.614 35.1235 11.142 35.0322 11.7417 35.0322C12.1589 35.0322 12.5581 35.0811 12.9395 35.1789C13.3241 35.2767 13.6647 35.4282 13.9613 35.6336C14.2611 35.8389 14.4974 36.1029 14.6701 36.4256C14.8429 36.745 14.9293 37.1279 14.9293 37.5745V42.6393H12.9541V41.598H12.8955C12.7749 41.8327 12.6136 42.0396 12.4115 42.2189C12.2094 42.3949 11.9666 42.5334 11.683 42.6345C11.3995 42.7322 11.0719 42.7811 10.7004 42.7811ZM11.2968 41.3438C11.6032 41.3438 11.8737 41.2835 12.1084 41.1629C12.343 41.039 12.5272 40.8728 12.6608 40.6642C12.7944 40.4556 12.8613 40.2193 12.8613 39.9553V39.1585C12.7961 39.2008 12.7064 39.2399 12.5924 39.2758C12.4816 39.3084 12.3561 39.3393 12.2159 39.3687C12.0758 39.3947 11.9356 39.4192 11.7955 39.442C11.6553 39.4616 11.5282 39.4795 11.4141 39.4958C11.1697 39.5316 10.9562 39.5887 10.7737 39.6669C10.5912 39.7451 10.4494 39.851 10.3484 39.9847C10.2473 40.115 10.1968 40.278 10.1968 40.4736C10.1968 40.7571 10.2995 40.9739 10.5048 41.1238C10.7134 41.2705 10.9774 41.3438 11.2968 41.3438Z" fill="#060A11" style="fill:#060A11;fill:color(display-p3 0.0235 0.0392 0.0667);fill-opacity:1;"/>
<path d="M3.87179 42.786C3.1026 42.786 2.44097 42.623 1.88689 42.2971C1.33608 41.9679 0.912375 41.5116 0.615782 40.9282C0.322448 40.3448 0.175781 39.6734 0.175781 38.914C0.175781 38.1448 0.324078 37.4702 0.620671 36.89C0.920523 36.3066 1.34586 35.8519 1.89667 35.526C2.44749 35.1968 3.1026 35.0322 3.86201 35.0322C4.51712 35.0322 5.09075 35.1512 5.5829 35.3891C6.07505 35.627 6.46453 35.9611 6.75134 36.3913C7.03816 36.8216 7.19623 37.3267 7.22556 37.9069H5.26023C5.20482 37.5321 5.05816 37.2306 4.82023 37.0025C4.58556 36.771 4.27756 36.6553 3.89623 36.6553C3.57356 36.6553 3.29164 36.7433 3.05045 36.9193C2.81253 37.0921 2.62675 37.3447 2.49312 37.6771C2.35949 38.0096 2.29267 38.4121 2.29267 38.8847C2.29267 39.3638 2.35786 39.7712 2.48823 40.1069C2.62186 40.4426 2.80927 40.6985 3.05045 40.8745C3.29164 41.0505 3.57356 41.1385 3.89623 41.1385C4.13416 41.1385 4.34764 41.0896 4.53667 40.9918C4.72897 40.894 4.88704 40.7522 5.0109 40.5665C5.13801 40.3774 5.22112 40.1509 5.26023 39.8869H7.22556C7.19297 40.4605 7.03653 40.9657 6.75623 41.4025C6.47919 41.8359 6.09623 42.1749 5.60734 42.4193C5.11845 42.6638 4.53993 42.786 3.87179 42.786Z" fill="#060A11" style="fill:#060A11;fill:color(display-p3 0.0235 0.0392 0.0667);fill-opacity:1;"/>
<path d="M32.177 29.8184C31.5634 29.8184 30.7252 29.8184 30.2252 29.8184C29.7252 29.8184 0.224609 29.8184 0.224609 29.8184L0.225246 26.0342C0.225246 26.0342 31.302 25.9737 31.7566 25.9888C32.2187 26.004 32.6164 25.8979 32.9497 25.6706C33.2907 25.4434 33.5672 25.057 33.7793 24.5115L34.0634 23.7729L27.802 5.81836H32.8929L36.5066 18.6365H36.6884L40.3361 5.81836H45.4611L38.677 25.1593C38.3513 26.0987 37.9081 26.9168 37.3475 27.6138C36.7944 28.3184 36.0937 28.86 35.2452 29.2388C34.3967 29.6252 33.374 29.8184 32.177 29.8184Z" fill="#060A11" style="fill:#060A11;fill:color(display-p3 0.0235 0.0392 0.0667);fill-opacity:1;"/>
<path d="M0 0H6.06818L12.4773 15.6364H12.75L19.1591 0H25.2273V23.2727H20.4545V8.125H20.2614L14.2386 23.1591H10.9886L4.96591 8.06818H4.77273V23.2727H0V0Z" fill="#060A11" style="fill:#060A11;fill:color(display-p3 0.0235 0.0392 0.0667);fill-opacity:1;"/>
</svg>
