<svg width="140" height="30" viewBox="0 0 140 30" fill="none" xmlns="http://www.w3.org/2000/svg">
<path d="M129.568 22.0118V5.9209H133.636V22.0118H129.568ZM123.557 16.0004V11.9323H139.648V16.0004H123.557Z" fill="#060A11" style="fill:#060A11;fill:color(display-p3 0.0235 0.0392 0.0667);fill-opacity:1;"/>
<path d="M107.53 13.1818V23.2727H102.689V0H107.394V8.89773H107.599C107.992 7.86742 108.629 7.06061 109.508 6.47727C110.386 5.88636 111.489 5.59091 112.814 5.59091C114.027 5.59091 115.083 5.85606 115.985 6.38636C116.894 6.90909 117.599 7.66288 118.099 8.64773C118.606 9.625 118.856 10.7955 118.849 12.1591V23.2727H114.008V13.0227C114.015 11.947 113.742 11.1098 113.189 10.5114C112.644 9.91288 111.879 9.61364 110.894 9.61364C110.235 9.61364 109.652 9.75379 109.144 10.0341C108.644 10.3144 108.25 10.7235 107.962 11.2614C107.682 11.7917 107.538 12.4318 107.53 13.1818Z" fill="#060A11" style="fill:#060A11;fill:color(display-p3 0.0235 0.0392 0.0667);fill-opacity:1;"/>
<path d="M99.2427 10.7959L94.8109 11.0686C94.7351 10.6898 94.5723 10.3489 94.3223 10.0459C94.0723 9.73525 93.7427 9.48904 93.3336 9.30722C92.9321 9.11782 92.4511 9.02313 91.8904 9.02313C91.1404 9.02313 90.5079 9.18222 89.9927 9.5004C89.4776 9.811 89.22 10.2277 89.22 10.7504C89.22 11.1671 89.3867 11.5193 89.72 11.8072C90.0533 12.0951 90.6253 12.3262 91.4359 12.5004L94.595 13.1368C96.292 13.4852 97.5571 14.0459 98.3904 14.8186C99.2238 15.5913 99.6404 16.6065 99.6404 17.864C99.6404 19.008 99.3033 20.0118 98.6291 20.8754C97.9624 21.739 97.0458 22.4133 95.8791 22.8981C94.72 23.3754 93.3829 23.614 91.8677 23.614C89.5571 23.614 87.7162 23.133 86.345 22.1709C84.9814 21.2012 84.1821 19.883 83.9473 18.2163L88.7086 17.9663C88.8526 18.6709 89.2011 19.2087 89.7541 19.5799C90.3071 19.9436 91.0155 20.1254 91.8791 20.1254C92.7276 20.1254 93.4094 19.9625 93.9245 19.6368C94.4473 19.3034 94.7124 18.8754 94.72 18.3527C94.7124 17.9133 94.5268 17.5534 94.1632 17.2731C93.7995 16.9852 93.2389 16.7655 92.4814 16.614L89.4586 16.0118C87.7541 15.6709 86.4852 15.0799 85.6518 14.239C84.8261 13.3981 84.4132 12.3262 84.4132 11.0231C84.4132 9.90191 84.7162 8.936 85.3223 8.1254C85.9359 7.31479 86.7958 6.68979 87.9018 6.2504C89.0155 5.81101 90.3185 5.59131 91.8109 5.59131C94.0155 5.59131 95.7503 6.05722 97.0154 6.98903C98.2882 7.92085 99.0306 9.18979 99.2427 10.7959Z" fill="#060A11" style="fill:#060A11;fill:color(display-p3 0.0235 0.0392 0.0667);fill-opacity:1;"/>
<path d="M71.1353 23.6027C70.0217 23.6027 69.0292 23.4095 68.158 23.0231C67.2868 22.6292 66.5974 22.0496 66.0898 21.2845C65.5898 20.5118 65.3398 19.5496 65.3398 18.3981C65.3398 17.4284 65.5179 16.614 65.8739 15.9549C66.23 15.2959 66.7148 14.7655 67.3285 14.364C67.9421 13.9625 68.6391 13.6595 69.4194 13.4549C70.2073 13.2504 71.033 13.1065 71.8967 13.0231C72.9118 12.9171 73.73 12.8186 74.3512 12.7277C74.9724 12.6292 75.4232 12.4852 75.7035 12.2959C75.9838 12.1065 76.1239 11.8262 76.1239 11.4549V11.3868C76.1239 10.6671 75.8967 10.1102 75.4421 9.71631C74.9951 9.32237 74.3588 9.1254 73.533 9.1254C72.6618 9.1254 71.9686 9.31858 71.4535 9.70494C70.9383 10.0837 70.5974 10.561 70.4307 11.1368L65.9535 10.7731C66.1807 9.71252 66.6277 8.79585 67.2944 8.02313C67.9611 7.24282 68.8209 6.64434 69.8739 6.22767C70.9345 5.80343 72.1618 5.59131 73.5557 5.59131C74.5254 5.59131 75.4535 5.70494 76.3398 5.93222C77.2338 6.15949 78.0254 6.51176 78.7148 6.98903C79.4118 7.46631 79.9611 8.07994 80.3626 8.82994C80.7641 9.57237 80.9648 10.4625 80.9648 11.5004V23.2731H76.3739V20.8527H76.2376C75.9573 21.3981 75.5823 21.8792 75.1126 22.2959C74.6429 22.7049 74.0785 23.0269 73.4194 23.2618C72.7603 23.489 71.9989 23.6027 71.1353 23.6027ZM72.5217 20.2618C73.2338 20.2618 73.8626 20.1216 74.408 19.8413C74.9535 19.5534 75.3815 19.1671 75.6921 18.6822C76.0027 18.1974 76.158 17.6481 76.158 17.0345V15.1822C76.0065 15.2807 75.7982 15.3716 75.533 15.4549C75.2754 15.5307 74.9838 15.6027 74.658 15.6709C74.3323 15.7315 74.0065 15.7883 73.6807 15.8413C73.355 15.8868 73.0595 15.9284 72.7944 15.9663C72.2262 16.0496 71.73 16.1822 71.3057 16.364C70.8815 16.5459 70.552 16.7921 70.3171 17.1027C70.0823 17.4057 69.9648 17.7845 69.9648 18.239C69.9648 18.8981 70.2035 19.4019 70.6807 19.7504C71.1656 20.0913 71.7792 20.2618 72.5217 20.2618Z" fill="#060A11" style="fill:#060A11;fill:color(display-p3 0.0235 0.0392 0.0667);fill-opacity:1;"/>
<path d="M55.2628 23.614C53.4749 23.614 51.937 23.2352 50.6491 22.4777C49.3688 21.7125 48.384 20.6519 47.6946 19.2959C47.0128 17.9398 46.6719 16.3792 46.6719 14.614C46.6719 12.8262 47.0166 11.258 47.706 9.90949C48.4029 8.55343 49.3916 7.49661 50.6719 6.73903C51.9522 5.97388 53.4749 5.59131 55.2401 5.59131C56.7628 5.59131 58.0961 5.86782 59.2401 6.42085C60.384 6.97388 61.2893 7.7504 61.956 8.7504C62.6226 9.7504 62.9901 10.9246 63.0582 12.2731H58.4901C58.3613 11.4019 58.0204 10.7012 57.4673 10.1709C56.9219 9.63298 56.206 9.36404 55.3196 9.36404C54.5696 9.36404 53.9143 9.56858 53.3537 9.97767C52.8007 10.3792 52.3688 10.9663 52.0582 11.739C51.7476 12.5118 51.5923 13.4474 51.5923 14.5459C51.5923 15.6595 51.7438 16.6065 52.0469 17.3868C52.3575 18.1671 52.7931 18.7618 53.3537 19.1709C53.9143 19.5799 54.5696 19.7845 55.3196 19.7845C55.8726 19.7845 56.3688 19.6709 56.8082 19.4436C57.2552 19.2163 57.6226 18.8868 57.9105 18.4549C58.206 18.0156 58.3991 17.489 58.4901 16.8754H63.0582C62.9825 18.2087 62.6188 19.383 61.9673 20.3981C61.3234 21.4057 60.4332 22.1936 59.2969 22.7618C58.1605 23.3299 56.8158 23.614 55.2628 23.614Z" fill="#060A11" style="fill:#060A11;fill:color(display-p3 0.0235 0.0392 0.0667);fill-opacity:1;"/>
<path d="M32.1775 29.8184C31.5639 29.8184 30.7257 29.8184 30.2257 29.8184C29.7257 29.8184 0.225098 29.8184 0.225098 29.8184L0.225735 26.0342C0.225735 26.0342 31.3025 25.9737 31.7571 25.9888C32.2192 26.004 32.6169 25.8979 32.9502 25.6706C33.2911 25.4434 33.5677 25.057 33.7798 24.5115L34.0639 23.7729L27.8025 5.81836H32.8934L36.5071 18.6365H36.6889L40.3366 5.81836H45.4616L38.6775 25.1593C38.3518 26.0987 37.9086 26.9168 37.348 27.6138C36.7949 28.3184 36.0942 28.86 35.2457 29.2388C34.3972 29.6252 33.3745 29.8184 32.1775 29.8184Z" fill="#060A11" style="fill:#060A11;fill:color(display-p3 0.0235 0.0392 0.0667);fill-opacity:1;"/>
<path d="M0 0H6.06818L12.4773 15.6364H12.75L19.1591 0H25.2273V23.2727H20.4545V8.125H20.2614L14.2386 23.1591H10.9886L4.96591 8.06818H4.77273V23.2727H0V0Z" fill="#060A11" style="fill:#060A11;fill:color(display-p3 0.0235 0.0392 0.0667);fill-opacity:1;"/>
</svg>
